# xmcd
#
# Track frame offsets:
#  150
#  14323
#  28866
#  42857
#  57875
#  72158
#  95749
#  109867
#  125187
#  140489
#  154763
#  167922
#  183159
#  211400
#  224833
#  239284
#  253487
#  269751
#  282498
#  296894
#
# Disc length: 4128 seconds
#
# Revision: 0
# Processed by: cddbd v1.5.2PL0 Copyright (c) Steve Scherf et al.
# Submitted via: AltoMP3_Maker 3.0
#
DISCID=4e101e14
DTITLE=Various Artist - simply ladies sing the blues CD1
DYEAR=1900
DGENRE=
TTITLE0=Basin Street Blues
TTITLE1=Fine And Mellow
TTITLE2=Blues In The Night
TTITLE3=Black Coffee
TTITLE4=Don't Smoke In Bed
TTITLE5=Billie's Blues
TTITLE6=Mood Indigo
TTITLE7=Stormy Weather
TTITLE8=Don't Explain
TTITLE9=The Blues I Love To Sing
TTITLE10=Ramblin' Blues
TTITLE11=Boogie Blues
TTITLE12=Empty Bed Blues
TTITLE13=Don't Worry 'Bout Me
TTITLE14=Toad Frog Blues
TTITLE15=Mellow Mama Blues
TTITLE16=It Ain't Necessarily So
TTITLE17=Aunt Hagar's Blues
TTITLE18=Rockin' Chair
TTITLE19=Walkin' And Talkin' Blues
EXTD=
EXTT0=
EXTT1=
EXTT2=
EXTT3=
EXTT4=
EXTT5=
EXTT6=
EXTT7=
EXTT8=
EXTT9=
EXTT10=
EXTT11=
EXTT12=
EXTT13=
EXTT14=
EXTT15=
EXTT16=
EXTT17=
EXTT18=
EXTT19=
PLAYORDER=
